<?xml version="1.0" encoding="iso-8859-1"?>
<!-- Generator: Adobe Illustrator 19.0.0, SVG Export Plug-In . SVG Version: 6.00 Build 0)  -->
<svg version="1.1" id="Capa_1" xmlns="http://www.w3.org/2000/svg" xmlns:xlink="http://www.w3.org/1999/xlink" x="0px" y="0px"
	 viewBox="0 0 512 512" style="enable-background:new 0 0 512 512;" xml:space="preserve">
<path style="fill:#FFC107;" d="M10.784,234.667h106.667c5.891,0,10.667,4.776,10.667,10.667v256c0,5.891-4.776,10.667-10.667,10.667
	H10.784c-5.891,0-10.667-4.776-10.667-10.667v-256C0.117,239.442,4.893,234.667,10.784,234.667z"/>
<path style="fill:#4CAF50;" d="M202.549,0h106.667c5.891,0,10.667,4.776,10.667,10.667v490.667c0,5.891-4.776,10.667-10.667,10.667
	H202.549c-5.891,0-10.667-4.776-10.667-10.667V10.667C191.883,4.776,196.658,0,202.549,0z"/>
<path style="fill:#2196F3;" d="M394.549,106.667h106.667c5.891,0,10.667,4.776,10.667,10.667v384
	c0,5.891-4.776,10.667-10.667,10.667H394.549c-5.891,0-10.667-4.776-10.667-10.667v-384
	C383.883,111.442,388.658,106.667,394.549,106.667z"/>
<g>
</g>
<g>
</g>
<g>
</g>
<g>
</g>
<g>
</g>
<g>
</g>
<g>
</g>
<g>
</g>
<g>
</g>
<g>
</g>
<g>
</g>
<g>
</g>
<g>
</g>
<g>
</g>
<g>
</g>
</svg>
