<svg id="Capa_1" enable-background="new 0 0 512.048 512.048" height="512" viewBox="0 0 512.048 512.048" width="512" xmlns="http://www.w3.org/2000/svg"><g><path d="m75.341 150.12-20.016 185.968 95.358-20.016v-165.952z" fill="#e1ebf0"/><path d="m75.341 150.12h-75.341v165.952l75.341 20.016z" fill="#fff5f5"/><path d="m256.024 90.072-20.016 125.112 95.357-20.016v-105.096z" fill="#e1ebf0"/><path d="m436.707 30.024-20.016 95.088 95.357-20.016v-75.072z" fill="#e1ebf0"/><path d="m436.707 30.024h-75.342v75.072l75.342 20.016z" fill="#fff5f5"/><path d="m436.707 482.024h75.341v-376.928h-75.341l-20.016 150.928z" fill="#515be0"/><path d="m361.365 105.096h75.341v376.928h-75.341z" fill="#4895ff"/><path d="m256.024 90.072h-75.341v105.096l75.341 20.016z" fill="#fff5f5"/><path d="m256.024 482.024h75.341v-286.856h-75.341l-20.016 120.904z" fill="#e50058"/><path d="m180.683 195.168h75.341v286.856h-75.341z" fill="#ff5b5b"/><path d="m75.341 482.024h75.342v-165.952h-75.342l-20.016 67.964z" fill="#009986"/><path d="m0 316.072h75.341v165.952h-75.341z" fill="#00cc76"/></g></svg>