<?xml version="1.0" encoding="iso-8859-1"?>
<!-- Generator: Adobe Illustrator 19.0.0, SVG Export Plug-In . SVG Version: 6.00 Build 0)  -->
<svg version="1.1" id="Capa_1" xmlns="http://www.w3.org/2000/svg" xmlns:xlink="http://www.w3.org/1999/xlink" x="0px" y="0px"
	 viewBox="0 0 512 512" style="enable-background:new 0 0 512 512;" xml:space="preserve">
<path style="fill:#F0C419;" d="M300.203,153.6H35.755c-15.036,0-27.221,12.186-27.221,27.221v235.691
	c0,15.036,12.186,27.221,27.221,27.221h440.491c15.036,0,27.221-12.186,27.221-27.221V170.667L300.203,153.6z"/>
<path style="fill:#E57E25;" d="M185.941,307.2H78.592c-10.411,0-18.859-8.448-18.859-18.859v-64.683
	c0-10.411,8.448-18.859,18.859-18.859h107.349c10.411,0,18.859,8.448,18.859,18.859v64.683
	C204.8,298.752,196.352,307.2,185.941,307.2z"/>
<g>
	<rect x="85.333" y="204.8" style="fill:#FFCD2F;" width="17.067" height="102.4"/>
	<rect x="93.867" y="230.4" style="fill:#FFCD2F;" width="110.933" height="17.067"/>
	<rect x="93.867" y="264.533" style="fill:#FFCD2F;" width="110.933" height="17.067"/>
</g>
<g>
	<path style="fill:#E57E25;" d="M110.933,392.533H76.8c-9.429,0-17.067-7.637-17.067-17.067l0,0c0-9.429,7.637-17.067,17.067-17.067
		h34.133c9.429,0,17.067,7.637,17.067,17.067l0,0C128,384.896,120.363,392.533,110.933,392.533z"/>
	<path style="fill:#E57E25;" d="M221.867,392.533h-34.133c-9.429,0-17.067-7.637-17.067-17.067l0,0
		c0-9.429,7.637-17.067,17.067-17.067h34.133c9.429,0,17.067,7.637,17.067,17.067l0,0
		C238.933,384.896,231.296,392.533,221.867,392.533z"/>
	<path style="fill:#E57E25;" d="M435.2,392.533h-34.133c-9.429,0-17.067-7.637-17.067-17.067l0,0
		c0-9.429,7.637-17.067,17.067-17.067H435.2c9.429,0,17.067,7.637,17.067,17.067l0,0C452.267,384.896,444.629,392.533,435.2,392.533
		z"/>
	<path style="fill:#E57E25;" d="M324.267,392.533h-34.133c-9.429,0-17.067-7.637-17.067-17.067l0,0
		c0-9.429,7.637-17.067,17.067-17.067h34.133c9.429,0,17.067,7.637,17.067,17.067l0,0
		C341.333,384.896,333.696,392.533,324.267,392.533z"/>
	<path style="fill:#E57E25;" d="M401.067,281.6H256c-4.71,0-8.533-3.814-8.533-8.533s3.823-8.533,8.533-8.533h145.067
		c4.71,0,8.533,3.814,8.533,8.533S405.777,281.6,401.067,281.6z"/>
	<path style="fill:#E57E25;" d="M443.733,315.733h-128c-4.71,0-8.533-3.814-8.533-8.533c0-4.719,3.823-8.533,8.533-8.533h128
		c4.71,0,8.533,3.814,8.533,8.533C452.267,311.919,448.444,315.733,443.733,315.733z"/>
	<path style="fill:#E57E25;" d="M281.6,315.733H256c-4.71,0-8.533-3.814-8.533-8.533c0-4.719,3.823-8.533,8.533-8.533h25.6
		c4.71,0,8.533,3.814,8.533,8.533C290.133,311.919,286.31,315.733,281.6,315.733z"/>
</g>
<circle style="fill:#4482C3;" cx="401.067" cy="170.667" r="102.4"/>
<g>
	<path style="fill:#FFFFFF;" d="M375.467,170.667h-34.133c-4.71,0-8.533-3.814-8.533-8.533V128c0-4.719,3.823-8.533,8.533-8.533
		h34.133c4.71,0,8.533,3.814,8.533,8.533v34.133C384,166.852,380.177,170.667,375.467,170.667z M349.867,153.6h17.067v-17.067
		h-17.067V153.6z"/>
	<path style="fill:#FFFFFF;" d="M460.8,221.867h-34.133c-4.71,0-8.533-3.814-8.533-8.533V179.2c0-4.719,3.823-8.533,8.533-8.533
		H460.8c4.71,0,8.533,3.814,8.533,8.533v34.133C469.333,218.052,465.51,221.867,460.8,221.867z M435.2,204.8h17.067v-17.067H435.2
		V204.8z"/>
	<path style="fill:#FFFFFF;" d="M384,221.867c-1.058,0-2.125-0.188-3.166-0.606c-4.378-1.749-6.502-6.716-4.753-11.093
		l34.133-85.333c1.749-4.386,6.716-6.519,11.093-4.762c4.378,1.749,6.502,6.716,4.753,11.093l-34.133,85.333
		C390.588,219.844,387.379,221.867,384,221.867z"/>
</g>
<g>
	<path style="fill:#611C90;" d="M375.467,170.667h-34.133c-4.719,0-8.533-3.823-8.533-8.533V128c0-4.71,3.814-8.533,8.533-8.533
		h34.133c4.719,0,8.533,3.823,8.533,8.533v34.133C384,166.844,380.186,170.667,375.467,170.667z M349.867,153.6h17.067v-17.067
		h-17.067V153.6z"/>
	<path style="fill:#611C90;" d="M460.8,221.867h-34.133c-4.719,0-8.533-3.823-8.533-8.533V179.2c0-4.71,3.814-8.533,8.533-8.533
		H460.8c4.719,0,8.533,3.823,8.533,8.533v34.133C469.333,218.044,465.519,221.867,460.8,221.867z M435.2,204.8h17.067v-17.067H435.2
		V204.8z"/>
	<path style="fill:#611C90;" d="M384,221.867c-1.058,0-2.133-0.196-3.166-0.614c-4.378-1.758-6.511-6.716-4.762-11.093
		l34.133-85.333c1.749-4.378,6.75-6.494,11.093-4.753c4.378,1.758,6.511,6.716,4.762,11.093l-34.133,85.333
		C390.588,219.836,387.379,221.867,384,221.867z"/>
	<path style="fill:#611C90;" d="M185.941,315.733H78.592c-15.104,0-27.392-12.288-27.392-27.392v-64.683
		c0-15.104,12.288-27.392,27.392-27.392h107.349c15.104,0,27.392,12.288,27.392,27.392v64.683
		C213.333,303.445,201.045,315.733,185.941,315.733z M78.592,213.333c-5.692,0-10.325,4.634-10.325,10.325v64.683
		c0,5.692,4.634,10.325,10.325,10.325h107.349c5.692,0,10.325-4.634,10.325-10.325v-64.683c0-5.692-4.634-10.325-10.325-10.325
		H78.592z"/>
	<rect x="85.333" y="204.8" style="fill:#611C90;" width="17.067" height="102.4"/>
	<rect x="93.867" y="230.4" style="fill:#611C90;" width="110.933" height="17.067"/>
	<rect x="93.867" y="264.533" style="fill:#611C90;" width="110.933" height="17.067"/>
	<path style="fill:#611C90;" d="M110.933,401.067H76.8c-14.114,0-25.6-11.486-25.6-25.6c0-14.114,11.486-25.6,25.6-25.6h34.133
		c14.114,0,25.6,11.486,25.6,25.6C136.533,389.581,125.047,401.067,110.933,401.067z M76.8,366.933
		c-4.702,0-8.533,3.823-8.533,8.533c0,4.71,3.831,8.533,8.533,8.533h34.133c4.702,0,8.533-3.823,8.533-8.533
		c0-4.71-3.831-8.533-8.533-8.533H76.8z"/>
	<path style="fill:#611C90;" d="M221.867,401.067h-34.133c-14.114,0-25.6-11.486-25.6-25.6c0-14.114,11.486-25.6,25.6-25.6h34.133
		c14.114,0,25.6,11.486,25.6,25.6C247.467,389.581,235.981,401.067,221.867,401.067z M187.733,366.933
		c-4.702,0-8.533,3.823-8.533,8.533c0,4.71,3.831,8.533,8.533,8.533h34.133c4.702,0,8.533-3.823,8.533-8.533
		c0-4.71-3.831-8.533-8.533-8.533H187.733z"/>
	<path style="fill:#611C90;" d="M435.2,401.067h-34.133c-14.114,0-25.6-11.486-25.6-25.6c0-14.114,11.486-25.6,25.6-25.6H435.2
		c14.114,0,25.6,11.486,25.6,25.6C460.8,389.581,449.314,401.067,435.2,401.067z M401.067,366.933c-4.71,0-8.533,3.823-8.533,8.533
		c0,4.71,3.823,8.533,8.533,8.533H435.2c4.71,0,8.533-3.823,8.533-8.533c0-4.71-3.823-8.533-8.533-8.533H401.067z"/>
	<path style="fill:#611C90;" d="M324.267,401.067h-34.133c-14.114,0-25.6-11.486-25.6-25.6c0-14.114,11.486-25.6,25.6-25.6h34.133
		c14.114,0,25.6,11.486,25.6,25.6C349.867,389.581,338.381,401.067,324.267,401.067z M290.133,366.933
		c-4.71,0-8.533,3.823-8.533,8.533c0,4.71,3.823,8.533,8.533,8.533h34.133c4.71,0,8.533-3.823,8.533-8.533
		c0-4.71-3.823-8.533-8.533-8.533H290.133z"/>
	<path style="fill:#611C90;" d="M401.067,281.6c-61.167,0-110.933-49.766-110.933-110.933S339.9,59.733,401.067,59.733
		S512,109.5,512,170.667S462.234,281.6,401.067,281.6z M401.067,76.8c-51.755,0-93.867,42.112-93.867,93.867
		s42.112,93.867,93.867,93.867s93.867-42.112,93.867-93.867S452.821,76.8,401.067,76.8z"/>
	<path style="fill:#611C90;" d="M476.245,452.267H35.755C16.034,452.267,0,436.224,0,416.512V180.821
		c0-19.721,16.034-35.755,35.755-35.755h264.448c2.509,0,4.89,1.101,6.519,3.021c1.613,1.92,2.313,4.446,1.903,6.929
		c-0.956,5.675-1.425,10.795-1.425,15.65c0,51.755,42.112,93.867,93.867,93.867s93.867-42.112,93.867-93.867
		c0-4.71,3.814-8.533,8.533-8.533c4.719,0,8.533,3.823,8.533,8.533v245.845C512,436.224,495.957,452.267,476.245,452.267z
		 M35.755,162.133c-10.308,0-18.688,8.38-18.688,18.688v235.691c0,10.308,8.38,18.688,18.688,18.688h440.491
		c10.308,0,18.688-8.38,18.688-18.688V229.734c-19.669,31.138-54.391,51.866-93.867,51.866
		c-61.167,0-110.933-49.766-110.933-110.933c0-2.782,0.128-5.615,0.375-8.533H35.755z"/>
	<path style="fill:#611C90;" d="M401.067,281.6H256c-4.71,0-8.533-3.814-8.533-8.533s3.823-8.533,8.533-8.533h145.067
		c4.719,0,8.533,3.814,8.533,8.533S405.786,281.6,401.067,281.6z"/>
	<path style="fill:#611C90;" d="M443.733,315.733h-128c-4.719,0-8.533-3.814-8.533-8.533c0-4.719,3.814-8.533,8.533-8.533h128
		c4.719,0,8.533,3.814,8.533,8.533C452.267,311.919,448.452,315.733,443.733,315.733z"/>
	<path style="fill:#611C90;" d="M281.6,315.733H256c-4.71,0-8.533-3.814-8.533-8.533c0-4.719,3.823-8.533,8.533-8.533h25.6
		c4.719,0,8.533,3.814,8.533,8.533C290.133,311.919,286.319,315.733,281.6,315.733z"/>
</g>
<g>
</g>
<g>
</g>
<g>
</g>
<g>
</g>
<g>
</g>
<g>
</g>
<g>
</g>
<g>
</g>
<g>
</g>
<g>
</g>
<g>
</g>
<g>
</g>
<g>
</g>
<g>
</g>
<g>
</g>
</svg>
