<svg height="512" viewBox="0 0 128 128" width="512" xmlns="http://www.w3.org/2000/svg"><g><g><path d="m98.09 29.792h-68.19a5.708 5.708 0 0 0 -5.7 5.708v44.334a5.709 5.709 0 0 0 5.7 5.708h25.76l8.34 12.666 8.33-12.666h25.76a5.708 5.708 0 0 0 5.708-5.708v-44.334a5.707 5.707 0 0 0 -5.708-5.708z" fill="#fd4b4a"/><path d="m52.046 42.52 3.931 7.966a1.575 1.575 0 0 0 1.185.86l8.791 1.278a1.573 1.573 0 0 1 .872 2.683l-6.361 6.2a1.573 1.573 0 0 0 -.453 1.392l1.5 8.755a1.574 1.574 0 0 1 -2.283 1.659l-7.861-4.133a1.573 1.573 0 0 0 -1.464 0l-7.863 4.134a1.573 1.573 0 0 1 -2.282-1.659l1.5-8.755a1.57 1.57 0 0 0 -.452-1.392l-6.361-6.2a1.573 1.573 0 0 1 .872-2.683l8.791-1.278a1.572 1.572 0 0 0 1.184-.86l3.931-7.966a1.574 1.574 0 0 1 2.823-.001z" fill="#ffd92d"/><g fill="#e9f1f8"><path d="m76.039 45.847h10.333a1.75 1.75 0 0 0 0-3.5h-10.333a1.75 1.75 0 0 0 0 3.5z"/><path d="m76.039 54.83h17.833a1.75 1.75 0 0 0 0-3.5h-17.833a1.75 1.75 0 0 0 0 3.5z"/><path d="m93.872 60.312h-17.833a1.75 1.75 0 0 0 0 3.5h17.833a1.75 1.75 0 0 0 0-3.5z"/><path d="m93.872 69.293h-17.833a1.75 1.75 0 1 0 0 3.5h17.833a1.75 1.75 0 1 0 0-3.5z"/></g></g><g fill="#001c5b"><path d="m47.25 31.542h1a1.75 1.75 0 0 0 0-3.5h-1a1.75 1.75 0 0 0 0 3.5z"/><path d="m98.094 28.042h-42.719a1.75 1.75 0 0 0 0 3.5h42.719a3.962 3.962 0 0 1 3.957 3.957v21.501a1.75 1.75 0 0 0 3.5 0v-21.5a7.465 7.465 0 0 0 -7.457-7.458z"/><path d="m103.8 61.75a1.75 1.75 0 0 0 -1.75 1.75v1.375a1.75 1.75 0 0 0 3.5 0v-1.375a1.75 1.75 0 0 0 -1.75-1.75z"/><path d="m103.8 69.293a1.75 1.75 0 0 0 -1.75 1.75v8.791a3.963 3.963 0 0 1 -3.957 3.958h-25.76a1.749 1.749 0 0 0 -1.462.788l-6.871 10.444-3.53-5.365a1.75 1.75 0 1 0 -2.924 1.924l4.992 7.587a1.75 1.75 0 0 0 2.924 0l7.814-11.878h24.818a7.466 7.466 0 0 0 7.457-7.458v-8.791a1.75 1.75 0 0 0 -1.751-1.75z"/><path d="m55.667 83.792h-25.761a3.963 3.963 0 0 1 -3.957-3.958v-44.334a3.962 3.962 0 0 1 3.957-3.957h11.094a1.75 1.75 0 0 0 0-3.5h-11.094a7.465 7.465 0 0 0 -7.457 7.457v44.334a7.466 7.466 0 0 0 7.457 7.458h25.761a1.75 1.75 0 0 0 0-3.5z"/><path d="m32.386 53.154a3.3 3.3 0 0 0 .842 3.406l6.294 6.14-1.486 8.662a3.319 3.319 0 0 0 4.821 3.5l7.782-4.091 7.78 4.091a3.323 3.323 0 0 0 4.821-3.5l-1.486-8.662 6.294-6.136a3.322 3.322 0 0 0 -1.84-5.669l-4.855-.706a1.75 1.75 0 0 0 -.5 3.464l4.5.654-6.1 5.95a3.323 3.323 0 0 0 -.957 2.942l1.441 8.4-7.545-3.967a3.329 3.329 0 0 0 -3.093 0l-7.553 3.968 1.442-8.4a3.324 3.324 0 0 0 -.957-2.939l-6.1-5.951 8.435-1.226a3.324 3.324 0 0 0 2.5-1.818l3.774-7.644 3.772 7.644a1.75 1.75 0 0 0 3.139-1.549l-3.932-7.965a3.323 3.323 0 0 0 -5.96 0l-3.89 7.882-8.7 1.264a3.3 3.3 0 0 0 -2.683 2.256z"/><path d="m76.042 45.847h10.333a1.75 1.75 0 0 0 0-3.5h-10.333a1.75 1.75 0 0 0 0 3.5z"/><path d="m76.042 54.83h17.833a1.75 1.75 0 0 0 0-3.5h-17.833a1.75 1.75 0 0 0 0 3.5z"/><path d="m76.042 63.812h17.833a1.75 1.75 0 0 0 0-3.5h-17.833a1.75 1.75 0 0 0 0 3.5z"/><path d="m76.042 72.793h17.833a1.75 1.75 0 0 0 0-3.5h-17.833a1.75 1.75 0 0 0 0 3.5z"/></g></g></svg>